Coordinates
version=1
nRows=14
nColumns=46
inDegrees=yes

Units are S.I. units (second, meters, Newtons, ...)
Angles are in degrees.

endheader
time	pelvis_tilt	pelvis_list	pelvis_rotation	pelvis_tx	pelvis_ty	pelvis_tz	bb_angle	bb_tx	bb_ty	bb_tz	hip_flexion_r	hip_adduction_r	hip_rotation_r	knee_angle_r	knee_angle_r_beta	ankle_angle_r	subtalar_angle_r	mtp_angle_r	crank_angle_r	hip_flexion_l	hip_adduction_l	hip_rotation_l	knee_angle_l	knee_angle_l_beta	ankle_angle_l	subtalar_angle_l	mtp_angle_l	crank_angle_l	lumbar_extension	lumbar_bending	lumbar_rotation	arm_flex_r	arm_add_r	arm_rot_r	elbow_flex_r	pro_sup_r	wrist_flex_r	wrist_dev_r	arm_flex_l	arm_add_l	arm_rot_l	elbow_flex_l	pro_sup_l	wrist_flex_l	wrist_dev_l
      2.50500000	    -16.67811581	      2.47295531	     -2.79151833	      0.29283654	      1.17632585	     -0.22231591	      0.00000000	      0.50000000	      0.00000000	      0.25000000	     44.67353315	     -1.32918886	      7.81266269	     51.69554467	      0.90225746	     18.28258749	     -7.16892024	      0.00000000	      0.00000000	     44.31074348	     -2.68303227	      1.04319221	     88.96568065	      1.55274405	      8.93208768	    -10.85680023	      0.00000000	      0.00000000	    -57.37195678	      4.51366066	      2.21680117	     52.20719454	    -16.78224256	     26.25680996	     83.65020048	     51.85862268	      0.00000000	      0.00000000	     48.68976096	    -21.74464799	     22.71901986	     73.66914424	     53.19285433	      0.00000000	      0.00000000
      2.51000000	    -16.56553433	      3.00024475	     -2.68031650	      0.29371787	      1.17366114	     -0.22245423	      0.00000000	      0.50000000	      0.00000000	      0.25000000	     43.56676789	     -1.88129088	      8.18889556	     50.35751160	      0.87890438	     18.01566854	     -7.05620808	      0.00000000	      0.00000000	     45.24123704	     -2.29616341	      0.80849111	     90.80241715	      1.58480115	      9.29932221	    -10.80514820	      0.00000000	      0.00000000	    -56.98885508	      4.07134979	      1.80363122	     51.72713597	    -16.94297796	     26.28207579	     83.55776815	     51.85129916	      0.00000000	      0.00000000	     48.56771843	    -21.65848781	     22.88704227	     73.62288520	     53.21812897	      0.00000000	      0.00000000
      2.51500000	    -16.57410060	      3.32440479	     -2.56649019	      0.29448089	      1.17070811	     -0.22242312	      0.00000000	      0.50000000	      0.00000000	      0.25000000	     42.60640919	     -2.24412197	      8.33777222	     49.06521792	      0.85634960	     17.49955585	     -7.43091990	      0.00000000	      0.00000000	     46.37574365	     -2.17773679	      0.71889037	     92.75614319	      1.61890010	      9.97859026	     -9.95988446	      0.00000000	      0.00000000	    -56.38599671	      3.69166436	      1.99319335	     50.84285022	    -17.43872043	     25.88107041	     83.63133575	     51.81722438	      0.00000000	      0.00000000	     48.84272388	    -21.28364231	     24.02995397	     72.77675646	     53.34995124	      0.00000000	      0.00000000
      2.52000000	    -16.43967536	      3.81000648	     -2.43273340	      0.29532210	      1.16829025	     -0.22268250	      0.00000000	      0.50000000	      0.00000000	      0.25000000	     41.48459857	     -2.84519418	      8.53020730	     47.79936360	      0.83425628	     17.39081628	     -7.26437759	      0.00000000	      0.00000000	     47.33931477	     -1.88736434	      0.41589609	     94.53026708	      1.64986440	     10.12357906	     -9.93586498	      0.00000000	      0.00000000	    -56.04820977	      3.19246890	      1.50323811	     50.42343611	    -17.61996721	     25.91041787	     83.54497261	     51.81136568	      0.00000000	      0.00000000	     48.75915919	    -21.15675245	     24.16617062	     72.73070149	     53.36685584	      0.00000000	      0.00000000
      2.52500000	    -16.37016447	      4.30065483	     -2.25848091	      0.29619241	      1.16593703	     -0.22291614	      0.00000000	      0.50000000	      0.00000000	      0.25000000	     40.38550997	     -3.45940893	      8.69104653	     46.47367076	      0.81111857	     16.97167939	     -7.06407924	      0.00000000	      0.00000000	     48.38094771	     -1.54903132	      0.18869174	     96.22890078	      1.67951115	     10.23221218	     -9.81956878	      0.00000000	      0.00000000	    -55.63510680	      2.75453410	      1.07892626	     49.88614408	    -17.80558356	     25.97278070	     83.38709647	     51.79891509	      0.00000000	      0.00000000	     48.63491809	    -21.04068890	     24.36254699	     72.61699164	     53.38094064	      0.00000000	      0.00000000
      2.53000000	    -16.33777687	      4.71735187	     -2.06618688	      0.29710596	      1.16373781	     -0.22315998	      0.00000000	      0.50000000	      0.00000000	      0.25000000	     39.29681816	     -4.04159586	      8.72957450	     45.15719655	      0.78814176	     16.62804218	     -6.94834204	      0.00000000	      0.00000000	     49.48615424	     -1.29534526	     -0.03568525	     97.84289385	      1.70768065	     10.35034535	     -9.69963419	      0.00000000	      0.00000000	    -55.16110683	      2.35471037	      0.71295822	     49.35328544	    -17.99420656	     26.03419903	     83.18558835	     51.77925543	      0.00000000	      0.00000000	     48.52572915	    -20.92816788	     24.60195665	     72.43078718	     53.38856900	      0.00000000	      0.00000000
      2.53500000	    -16.51376819	      4.85219614	     -1.79473074	      0.29767770	      1.16134515	     -0.22336173	      0.00000000	      0.50000000	      0.00000000	      0.25000000	     38.36685820	     -4.34321554	      8.61802339	     43.76906654	      0.76391432	     15.94194434	     -7.43080243	      0.00000000	      0.00000000	     50.93824673	     -1.26044897	      0.04725859	     99.54775683	      1.73743612	     10.44860897	     -9.11652554	      0.00000000	      0.00000000	    -54.34379392	      2.00829506	      2.19781605	     47.46652609	    -19.72896818	     24.48440237	     84.06401001	     51.76555107	      0.00000000	      0.00000000	     50.39118643	    -19.16786985	     27.70875501	     68.89853676	     53.55940111	      0.00000000	      0.00000000
      2.54000000	    -16.51153849	      5.24780230	     -1.62489570	      0.29847991	      1.15957217	     -0.22356047	      0.00000000	      0.50000000	      0.00000000	      0.25000000	     37.25838964	     -4.89320021	      8.64610012	     42.39935889	      0.74000841	     15.52867696	     -7.15852264	      0.00000000	      0.00000000	     52.08913204	     -1.01936231	     -0.17594450	    100.99690538	      1.76272853	     10.31998381	     -9.04267780	      0.00000000	      0.00000000	    -53.87104931	      1.60934119	      1.81541539	     47.02391920	    -19.86892334	     24.52349077	     83.84882633	     51.73210533	      0.00000000	      0.00000000	     50.27618594	    -19.11046025	     27.83977745	     68.74850555	     53.55516278	      0.00000000	      0.00000000
      2.54500000	    -16.58752365	      5.45797711	     -1.36753025	      0.29911869	      1.15783611	     -0.22376179	      0.00000000	      0.50000000	      0.00000000	      0.25000000	     36.18220758	     -5.30560829	      8.42443140	     40.99695920	      0.71553192	     14.93257358	     -7.42595223	      0.00000000	      0.00000000	     53.39597447	     -0.88342330	     -0.19567485	    102.53437452	      1.78956243	      9.73228495	     -9.50210162	      0.00000000	      0.00000000	    -53.32040691	      1.35715646	      1.63016454	     46.61058813	    -20.01899586	     24.40144206	     83.26015857	     51.61872243	      0.00000000	      0.00000000	     50.45335325	    -18.83918933	     28.42046442	     67.85620734	     53.52639779	      0.00000000	      0.00000000
      2.55000000	    -16.68892065	      5.83156069	     -1.21521536	      0.29988827	      1.15653666	     -0.22390847	      0.00000000	      0.50000000	      0.00000000	      0.25000000	     35.13259539	     -5.84083276	      8.40315396	     39.57391285	      0.69069508	     14.50266165	     -7.08707178	      0.00000000	      0.00000000	     54.65971345	     -0.69049976	     -0.45295006	    103.80389256	      1.81171970	      9.57825619	     -9.39072015	      0.00000000	      0.00000000	    -52.87088411	      0.86744592	      1.23796854	     46.15274721	    -20.16727305	     24.34880552	     83.05548073	     51.56283636	      0.00000000	      0.00000000	     50.33974585	    -18.69707112	     28.61580086	     67.72215556	     53.50662499	      0.00000000	      0.00000000
      2.55500000	    -16.78838790	      5.96030594	     -0.89579238	      0.30045917	      1.15536461	     -0.22412973	      0.00000000	      0.50000000	      0.00000000	      0.25000000	     34.00698398	     -6.22307845	      8.05360067	     38.12308131	      0.66537329	     13.82978433	     -7.12057459	      0.00000000	      0.00000000	     56.00738554	     -0.55227899	     -0.38835986	    105.07914510	      1.83397706	      9.29484731	     -9.37237748	      0.00000000	      0.00000000	    -52.32079602	      0.83363392	      1.13448183	     45.71950053	    -20.23263535	     23.97996940	     82.52770012	     51.43510152	      0.00000000	      0.00000000	     50.54092197	    -18.46315550	     29.36249047	     66.72264461	     53.46667421	      0.00000000	      0.00000000
      2.56000000	    -16.91874858	      6.23018549	     -0.71557706	      0.30103321	      1.15451230	     -0.22417035	      0.00000000	      0.50000000	      0.00000000	      0.25000000	     32.95264975	     -6.66576987	      7.87428586	     36.70751373	      0.64066697	     13.24156721	     -6.72597473	      0.00000000	      0.00000000	     57.35552527	     -0.42227018	     -0.54998782	    106.16671370	      1.85295871	      9.40965606	     -8.80866171	      0.00000000	      0.00000000	    -51.76488605	      0.36881615	      1.25925854	     44.89427098	    -20.52489771	     23.01050708	     82.26551951	     51.30469438	      0.00000000	      0.00000000	     51.13593784	    -17.86892603	     30.42175522	     65.30987800	     53.44583678	      0.00000000	      0.00000000
      2.56500000	    -17.08007242	      6.59210016	     -0.62620748	      0.30161727	      1.15388638	     -0.22415538	      0.00000000	      0.50000000	      0.00000000	      0.25000000	     31.97126217	     -7.16164545	      7.79073161	     35.32121649	      0.61647152	     12.73001562	     -6.30585450	      0.00000000	      0.00000000	     58.59555813	     -0.16902756	     -0.76571889	    107.13463931	      1.86985220	      9.24252879	     -9.07187208	      0.00000000	      0.00000000	    -51.35143261	     -0.20811234	      0.87698844	     44.50952827	    -20.74948268	     22.89211193	     82.16082829	     51.26625455	      0.00000000	      0.00000000	     51.12659153	    -17.80490125	     30.48256394	     65.25588450	     53.42931309	      0.00000000	      0.00000000
      2.57000000	    -17.24418240	      6.90190611	     -0.44800194	      0.30223093	      1.15368182	     -0.22428969	      0.00000000	      0.50000000	      0.00000000	      0.25000000	     30.96603706	     -7.69384029	      7.47690725	     33.91364893	      0.59190484	     11.99921137	     -5.85542712	      0.00000000	      0.00000000	     59.85764441	     -0.01109872	     -1.06860466	    107.97146595	      1.88445758	      9.16358351	     -9.22768754	      0.00000000	      0.00000000	    -50.94261888	     -0.65288808	      0.54690893	     44.06666087	    -20.96481612	     22.69605252	     81.94333272	     51.20777143	      0.00000000	      0.00000000	     51.10568101	    -17.68996719	     30.60014957	     65.12293998	     53.41678225	      0.00000000	      0.00000000
